<?xml version="1.0" encoding="utf-8"?><!DOCTYPE svg PUBLIC "-//W3C//DTD SVG 1.1//EN" "http://www.w3.org/Graphics/SVG/1.1/DTD/svg11.dtd"><svg xmlns="http://www.w3.org/2000/svg" xml:space="preserve" xmlns:xlink="http://www.w3.org/1999/xlink" width="980" height="980" viewBox="0 0 980 980">
<rect width="980" height="980" fill="#ffffff" x="0" y="0" />
<g fill="#000000">
<g transform="translate(240,40) scale(3.4333333333333)"><rect width="6" height="6"/></g>
<g transform="translate(280,40) scale(3.4333333333333)"><rect width="6" height="6"/></g>
<g transform="translate(320,40) scale(3.4333333333333)"><rect width="6" height="6"/></g>
<g transform="translate(340,40) scale(3.4333333333333)"><rect width="6" height="6"/></g>
<g transform="translate(360,40) scale(3.4333333333333)"><rect width="6" height="6"/></g>
<g transform="translate(400,40) scale(3.4333333333333)"><rect width="6" height="6"/></g>
<g transform="translate(440,40) scale(3.4333333333333)"><rect width="6" height="6"/></g>
<g transform="translate(460,40) scale(3.4333333333333)"><rect width="6" height="6"/></g>
<g transform="translate(480,40) scale(3.4333333333333)"><rect width="6" height="6"/></g>
<g transform="translate(580,40) scale(3.4333333333333)"><rect width="6" height="6"/></g>
<g transform="translate(600,40) scale(3.4333333333333)"><rect width="6" height="6"/></g>
<g transform="translate(620,40) scale(3.4333333333333)"><rect width="6" height="6"/></g>
<g transform="translate(680,40) scale(3.4333333333333)"><rect width="6" height="6"/></g>
<g transform="translate(700,40) scale(3.4333333333333)"><rect width="6" height="6"/></g>
<g transform="translate(760,40) scale(3.4333333333333)"><rect width="6" height="6"/></g>
<g transform="translate(220,60) scale(3.4333333333333)"><rect width="6" height="6"/></g>
<g transform="translate(240,60) scale(3.4333333333333)"><rect width="6" height="6"/></g>
<g transform="translate(300,60) scale(3.4333333333333)"><rect width="6" height="6"/></g>
<g transform="translate(320,60) scale(3.4333333333333)"><rect width="6" height="6"/></g>
<g transform="translate(340,60) scale(3.4333333333333)"><rect width="6" height="6"/></g>
<g transform="translate(380,60) scale(3.4333333333333)"><rect width="6" height="6"/></g>
<g transform="translate(400,60) scale(3.4333333333333)"><rect width="6" height="6"/></g>
<g transform="translate(420,60) scale(3.4333333333333)"><rect width="6" height="6"/></g>
<g transform="translate(440,60) scale(3.4333333333333)"><rect width="6" height="6"/></g>
<g transform="translate(520,60) scale(3.4333333333333)"><rect width="6" height="6"/></g>
<g transform="translate(540,60) scale(3.4333333333333)"><rect width="6" height="6"/></g>
<g transform="translate(560,60) scale(3.4333333333333)"><rect width="6" height="6"/></g>
<g transform="translate(620,60) scale(3.4333333333333)"><rect width="6" height="6"/></g>
<g transform="translate(640,60) scale(3.4333333333333)"><rect width="6" height="6"/></g>
<g transform="translate(660,60) scale(3.4333333333333)"><rect width="6" height="6"/></g>
<g transform="translate(700,60) scale(3.4333333333333)"><rect width="6" height="6"/></g>
<g transform="translate(740,60) scale(3.4333333333333)"><rect width="6" height="6"/></g>
<g transform="translate(200,80) scale(3.4333333333333)"><rect width="6" height="6"/></g>
<g transform="translate(280,80) scale(3.4333333333333)"><rect width="6" height="6"/></g>
<g transform="translate(360,80) scale(3.4333333333333)"><rect width="6" height="6"/></g>
<g transform="translate(500,80) scale(3.4333333333333)"><rect width="6" height="6"/></g>
<g transform="translate(680,80) scale(3.4333333333333)"><rect width="6" height="6"/></g>
<g transform="translate(740,80) scale(3.4333333333333)"><rect width="6" height="6"/></g>
<g transform="translate(200,100) scale(3.4333333333333)"><rect width="6" height="6"/></g>
<g transform="translate(240,100) scale(3.4333333333333)"><rect width="6" height="6"/></g>
<g transform="translate(260,100) scale(3.4333333333333)"><rect width="6" height="6"/></g>
<g transform="translate(280,100) scale(3.4333333333333)"><rect width="6" height="6"/></g>
<g transform="translate(380,100) scale(3.4333333333333)"><rect width="6" height="6"/></g>
<g transform="translate(420,100) scale(3.4333333333333)"><rect width="6" height="6"/></g>
<g transform="translate(440,100) scale(3.4333333333333)"><rect width="6" height="6"/></g>
<g transform="translate(540,100) scale(3.4333333333333)"><rect width="6" height="6"/></g>
<g transform="translate(580,100) scale(3.4333333333333)"><rect width="6" height="6"/></g>
<g transform="translate(600,100) scale(3.4333333333333)"><rect width="6" height="6"/></g>
<g transform="translate(640,100) scale(3.4333333333333)"><rect width="6" height="6"/></g>
<g transform="translate(660,100) scale(3.4333333333333)"><rect width="6" height="6"/></g>
<g transform="translate(680,100) scale(3.4333333333333)"><rect width="6" height="6"/></g>
<g transform="translate(700,100) scale(3.4333333333333)"><rect width="6" height="6"/></g>
<g transform="translate(740,100) scale(3.4333333333333)"><rect width="6" height="6"/></g>
<g transform="translate(760,100) scale(3.4333333333333)"><rect width="6" height="6"/></g>
<g transform="translate(200,120) scale(3.4333333333333)"><rect width="6" height="6"/></g>
<g transform="translate(260,120) scale(3.4333333333333)"><rect width="6" height="6"/></g>
<g transform="translate(280,120) scale(3.4333333333333)"><rect width="6" height="6"/></g>
<g transform="translate(320,120) scale(3.4333333333333)"><rect width="6" height="6"/></g>
<g transform="translate(340,120) scale(3.4333333333333)"><rect width="6" height="6"/></g>
<g transform="translate(360,120) scale(3.4333333333333)"><rect width="6" height="6"/></g>
<g transform="translate(440,120) scale(3.4333333333333)"><rect width="6" height="6"/></g>
<g transform="translate(460,120) scale(3.4333333333333)"><rect width="6" height="6"/></g>
<g transform="translate(480,120) scale(3.4333333333333)"><rect width="6" height="6"/></g>
<g transform="translate(500,120) scale(3.4333333333333)"><rect width="6" height="6"/></g>
<g transform="translate(520,120) scale(3.4333333333333)"><rect width="6" height="6"/></g>
<g transform="translate(580,120) scale(3.4333333333333)"><rect width="6" height="6"/></g>
<g transform="translate(620,120) scale(3.4333333333333)"><rect width="6" height="6"/></g>
<g transform="translate(680,120) scale(3.4333333333333)"><rect width="6" height="6"/></g>
<g transform="translate(720,120) scale(3.4333333333333)"><rect width="6" height="6"/></g>
<g transform="translate(740,120) scale(3.4333333333333)"><rect width="6" height="6"/></g>
<g transform="translate(760,120) scale(3.4333333333333)"><rect width="6" height="6"/></g>
<g transform="translate(200,140) scale(3.4333333333333)"><rect width="6" height="6"/></g>
<g transform="translate(220,140) scale(3.4333333333333)"><rect width="6" height="6"/></g>
<g transform="translate(240,140) scale(3.4333333333333)"><rect width="6" height="6"/></g>
<g transform="translate(260,140) scale(3.4333333333333)"><rect width="6" height="6"/></g>
<g transform="translate(300,140) scale(3.4333333333333)"><rect width="6" height="6"/></g>
<g transform="translate(380,140) scale(3.4333333333333)"><rect width="6" height="6"/></g>
<g transform="translate(420,140) scale(3.4333333333333)"><rect width="6" height="6"/></g>
<g transform="translate(440,140) scale(3.4333333333333)"><rect width="6" height="6"/></g>
<g transform="translate(520,140) scale(3.4333333333333)"><rect width="6" height="6"/></g>
<g transform="translate(540,140) scale(3.4333333333333)"><rect width="6" height="6"/></g>
<g transform="translate(600,140) scale(3.4333333333333)"><rect width="6" height="6"/></g>
<g transform="translate(640,140) scale(3.4333333333333)"><rect width="6" height="6"/></g>
<g transform="translate(660,140) scale(3.4333333333333)"><rect width="6" height="6"/></g>
<g transform="translate(680,140) scale(3.4333333333333)"><rect width="6" height="6"/></g>
<g transform="translate(700,140) scale(3.4333333333333)"><rect width="6" height="6"/></g>
<g transform="translate(200,160) scale(3.4333333333333)"><rect width="6" height="6"/></g>
<g transform="translate(240,160) scale(3.4333333333333)"><rect width="6" height="6"/></g>
<g transform="translate(280,160) scale(3.4333333333333)"><rect width="6" height="6"/></g>
<g transform="translate(320,160) scale(3.4333333333333)"><rect width="6" height="6"/></g>
<g transform="translate(360,160) scale(3.4333333333333)"><rect width="6" height="6"/></g>
<g transform="translate(400,160) scale(3.4333333333333)"><rect width="6" height="6"/></g>
<g transform="translate(440,160) scale(3.4333333333333)"><rect width="6" height="6"/></g>
<g transform="translate(480,160) scale(3.4333333333333)"><rect width="6" height="6"/></g>
<g transform="translate(520,160) scale(3.4333333333333)"><rect width="6" height="6"/></g>
<g transform="translate(560,160) scale(3.4333333333333)"><rect width="6" height="6"/></g>
<g transform="translate(600,160) scale(3.4333333333333)"><rect width="6" height="6"/></g>
<g transform="translate(640,160) scale(3.4333333333333)"><rect width="6" height="6"/></g>
<g transform="translate(680,160) scale(3.4333333333333)"><rect width="6" height="6"/></g>
<g transform="translate(720,160) scale(3.4333333333333)"><rect width="6" height="6"/></g>
<g transform="translate(760,160) scale(3.4333333333333)"><rect width="6" height="6"/></g>
<g transform="translate(200,180) scale(3.4333333333333)"><rect width="6" height="6"/></g>
<g transform="translate(220,180) scale(3.4333333333333)"><rect width="6" height="6"/></g>
<g transform="translate(260,180) scale(3.4333333333333)"><rect width="6" height="6"/></g>
<g transform="translate(280,180) scale(3.4333333333333)"><rect width="6" height="6"/></g>
<g transform="translate(300,180) scale(3.4333333333333)"><rect width="6" height="6"/></g>
<g transform="translate(340,180) scale(3.4333333333333)"><rect width="6" height="6"/></g>
<g transform="translate(420,180) scale(3.4333333333333)"><rect width="6" height="6"/></g>
<g transform="translate(440,180) scale(3.4333333333333)"><rect width="6" height="6"/></g>
<g transform="translate(520,180) scale(3.4333333333333)"><rect width="6" height="6"/></g>
<g transform="translate(540,180) scale(3.4333333333333)"><rect width="6" height="6"/></g>
<g transform="translate(640,180) scale(3.4333333333333)"><rect width="6" height="6"/></g>
<g transform="translate(700,180) scale(3.4333333333333)"><rect width="6" height="6"/></g>
<g transform="translate(740,180) scale(3.4333333333333)"><rect width="6" height="6"/></g>
<g transform="translate(760,180) scale(3.4333333333333)"><rect width="6" height="6"/></g>
<g transform="translate(40,200) scale(3.4333333333333)"><rect width="6" height="6"/></g>
<g transform="translate(80,200) scale(3.4333333333333)"><rect width="6" height="6"/></g>
<g transform="translate(100,200) scale(3.4333333333333)"><rect width="6" height="6"/></g>
<g transform="translate(120,200) scale(3.4333333333333)"><rect width="6" height="6"/></g>
<g transform="translate(140,200) scale(3.4333333333333)"><rect width="6" height="6"/></g>
<g transform="translate(160,200) scale(3.4333333333333)"><rect width="6" height="6"/></g>
<g transform="translate(220,200) scale(3.4333333333333)"><rect width="6" height="6"/></g>
<g transform="translate(240,200) scale(3.4333333333333)"><rect width="6" height="6"/></g>
<g transform="translate(260,200) scale(3.4333333333333)"><rect width="6" height="6"/></g>
<g transform="translate(380,200) scale(3.4333333333333)"><rect width="6" height="6"/></g>
<g transform="translate(420,200) scale(3.4333333333333)"><rect width="6" height="6"/></g>
<g transform="translate(440,200) scale(3.4333333333333)"><rect width="6" height="6"/></g>
<g transform="translate(460,200) scale(3.4333333333333)"><rect width="6" height="6"/></g>
<g transform="translate(480,200) scale(3.4333333333333)"><rect width="6" height="6"/></g>
<g transform="translate(500,200) scale(3.4333333333333)"><rect width="6" height="6"/></g>
<g transform="translate(520,200) scale(3.4333333333333)"><rect width="6" height="6"/></g>
<g transform="translate(580,200) scale(3.4333333333333)"><rect width="6" height="6"/></g>
<g transform="translate(620,200) scale(3.4333333333333)"><rect width="6" height="6"/></g>
<g transform="translate(640,200) scale(3.4333333333333)"><rect width="6" height="6"/></g>
<g transform="translate(660,200) scale(3.4333333333333)"><rect width="6" height="6"/></g>
<g transform="translate(700,200) scale(3.4333333333333)"><rect width="6" height="6"/></g>
<g transform="translate(760,200) scale(3.4333333333333)"><rect width="6" height="6"/></g>
<g transform="translate(800,200) scale(3.4333333333333)"><rect width="6" height="6"/></g>
<g transform="translate(820,200) scale(3.4333333333333)"><rect width="6" height="6"/></g>
<g transform="translate(840,200) scale(3.4333333333333)"><rect width="6" height="6"/></g>
<g transform="translate(860,200) scale(3.4333333333333)"><rect width="6" height="6"/></g>
<g transform="translate(880,200) scale(3.4333333333333)"><rect width="6" height="6"/></g>
<g transform="translate(80,220) scale(3.4333333333333)"><rect width="6" height="6"/></g>
<g transform="translate(100,220) scale(3.4333333333333)"><rect width="6" height="6"/></g>
<g transform="translate(240,220) scale(3.4333333333333)"><rect width="6" height="6"/></g>
<g transform="translate(260,220) scale(3.4333333333333)"><rect width="6" height="6"/></g>
<g transform="translate(280,220) scale(3.4333333333333)"><rect width="6" height="6"/></g>
<g transform="translate(320,220) scale(3.4333333333333)"><rect width="6" height="6"/></g>
<g transform="translate(360,220) scale(3.4333333333333)"><rect width="6" height="6"/></g>
<g transform="translate(400,220) scale(3.4333333333333)"><rect width="6" height="6"/></g>
<g transform="translate(440,220) scale(3.4333333333333)"><rect width="6" height="6"/></g>
<g transform="translate(500,220) scale(3.4333333333333)"><rect width="6" height="6"/></g>
<g transform="translate(520,220) scale(3.4333333333333)"><rect width="6" height="6"/></g>
<g transform="translate(580,220) scale(3.4333333333333)"><rect width="6" height="6"/></g>
<g transform="translate(620,220) scale(3.4333333333333)"><rect width="6" height="6"/></g>
<g transform="translate(640,220) scale(3.4333333333333)"><rect width="6" height="6"/></g>
<g transform="translate(760,220) scale(3.4333333333333)"><rect width="6" height="6"/></g>
<g transform="translate(780,220) scale(3.4333333333333)"><rect width="6" height="6"/></g>
<g transform="translate(800,220) scale(3.4333333333333)"><rect width="6" height="6"/></g>
<g transform="translate(840,220) scale(3.4333333333333)"><rect width="6" height="6"/></g>
<g transform="translate(880,220) scale(3.4333333333333)"><rect width="6" height="6"/></g>
<g transform="translate(900,220) scale(3.4333333333333)"><rect width="6" height="6"/></g>
<g transform="translate(40,240) scale(3.4333333333333)"><rect width="6" height="6"/></g>
<g transform="translate(60,240) scale(3.4333333333333)"><rect width="6" height="6"/></g>
<g transform="translate(120,240) scale(3.4333333333333)"><rect width="6" height="6"/></g>
<g transform="translate(140,240) scale(3.4333333333333)"><rect width="6" height="6"/></g>
<g transform="translate(160,240) scale(3.4333333333333)"><rect width="6" height="6"/></g>
<g transform="translate(180,240) scale(3.4333333333333)"><rect width="6" height="6"/></g>
<g transform="translate(220,240) scale(3.4333333333333)"><rect width="6" height="6"/></g>
<g transform="translate(260,240) scale(3.4333333333333)"><rect width="6" height="6"/></g>
<g transform="translate(340,240) scale(3.4333333333333)"><rect width="6" height="6"/></g>
<g transform="translate(400,240) scale(3.4333333333333)"><rect width="6" height="6"/></g>
<g transform="translate(420,240) scale(3.4333333333333)"><rect width="6" height="6"/></g>
<g transform="translate(480,240) scale(3.4333333333333)"><rect width="6" height="6"/></g>
<g transform="translate(520,240) scale(3.4333333333333)"><rect width="6" height="6"/></g>
<g transform="translate(580,240) scale(3.4333333333333)"><rect width="6" height="6"/></g>
<g transform="translate(620,240) scale(3.4333333333333)"><rect width="6" height="6"/></g>
<g transform="translate(660,240) scale(3.4333333333333)"><rect width="6" height="6"/></g>
<g transform="translate(700,240) scale(3.4333333333333)"><rect width="6" height="6"/></g>
<g transform="translate(760,240) scale(3.4333333333333)"><rect width="6" height="6"/></g>
<g transform="translate(780,240) scale(3.4333333333333)"><rect width="6" height="6"/></g>
<g transform="translate(800,240) scale(3.4333333333333)"><rect width="6" height="6"/></g>
<g transform="translate(820,240) scale(3.4333333333333)"><rect width="6" height="6"/></g>
<g transform="translate(840,240) scale(3.4333333333333)"><rect width="6" height="6"/></g>
<g transform="translate(860,240) scale(3.4333333333333)"><rect width="6" height="6"/></g>
<g transform="translate(880,240) scale(3.4333333333333)"><rect width="6" height="6"/></g>
<g transform="translate(900,240) scale(3.4333333333333)"><rect width="6" height="6"/></g>
<g transform="translate(920,240) scale(3.4333333333333)"><rect width="6" height="6"/></g>
<g transform="translate(40,260) scale(3.4333333333333)"><rect width="6" height="6"/></g>
<g transform="translate(200,260) scale(3.4333333333333)"><rect width="6" height="6"/></g>
<g transform="translate(220,260) scale(3.4333333333333)"><rect width="6" height="6"/></g>
<g transform="translate(240,260) scale(3.4333333333333)"><rect width="6" height="6"/></g>
<g transform="translate(280,260) scale(3.4333333333333)"><rect width="6" height="6"/></g>
<g transform="translate(320,260) scale(3.4333333333333)"><rect width="6" height="6"/></g>
<g transform="translate(340,260) scale(3.4333333333333)"><rect width="6" height="6"/></g>
<g transform="translate(360,260) scale(3.4333333333333)"><rect width="6" height="6"/></g>
<g transform="translate(380,260) scale(3.4333333333333)"><rect width="6" height="6"/></g>
<g transform="translate(460,260) scale(3.4333333333333)"><rect width="6" height="6"/></g>
<g transform="translate(500,260) scale(3.4333333333333)"><rect width="6" height="6"/></g>
<g transform="translate(520,260) scale(3.4333333333333)"><rect width="6" height="6"/></g>
<g transform="translate(560,260) scale(3.4333333333333)"><rect width="6" height="6"/></g>
<g transform="translate(580,260) scale(3.4333333333333)"><rect width="6" height="6"/></g>
<g transform="translate(660,260) scale(3.4333333333333)"><rect width="6" height="6"/></g>
<g transform="translate(840,260) scale(3.4333333333333)"><rect width="6" height="6"/></g>
<g transform="translate(880,260) scale(3.4333333333333)"><rect width="6" height="6"/></g>
<g transform="translate(900,260) scale(3.4333333333333)"><rect width="6" height="6"/></g>
<g transform="translate(920,260) scale(3.4333333333333)"><rect width="6" height="6"/></g>
<g transform="translate(40,280) scale(3.4333333333333)"><rect width="6" height="6"/></g>
<g transform="translate(60,280) scale(3.4333333333333)"><rect width="6" height="6"/></g>
<g transform="translate(80,280) scale(3.4333333333333)"><rect width="6" height="6"/></g>
<g transform="translate(100,280) scale(3.4333333333333)"><rect width="6" height="6"/></g>
<g transform="translate(120,280) scale(3.4333333333333)"><rect width="6" height="6"/></g>
<g transform="translate(160,280) scale(3.4333333333333)"><rect width="6" height="6"/></g>
<g transform="translate(180,280) scale(3.4333333333333)"><rect width="6" height="6"/></g>
<g transform="translate(200,280) scale(3.4333333333333)"><rect width="6" height="6"/></g>
<g transform="translate(240,280) scale(3.4333333333333)"><rect width="6" height="6"/></g>
<g transform="translate(340,280) scale(3.4333333333333)"><rect width="6" height="6"/></g>
<g transform="translate(360,280) scale(3.4333333333333)"><rect width="6" height="6"/></g>
<g transform="translate(380,280) scale(3.4333333333333)"><rect width="6" height="6"/></g>
<g transform="translate(420,280) scale(3.4333333333333)"><rect width="6" height="6"/></g>
<g transform="translate(460,280) scale(3.4333333333333)"><rect width="6" height="6"/></g>
<g transform="translate(480,280) scale(3.4333333333333)"><rect width="6" height="6"/></g>
<g transform="translate(520,280) scale(3.4333333333333)"><rect width="6" height="6"/></g>
<g transform="translate(560,280) scale(3.4333333333333)"><rect width="6" height="6"/></g>
<g transform="translate(600,280) scale(3.4333333333333)"><rect width="6" height="6"/></g>
<g transform="translate(620,280) scale(3.4333333333333)"><rect width="6" height="6"/></g>
<g transform="translate(640,280) scale(3.4333333333333)"><rect width="6" height="6"/></g>
<g transform="translate(660,280) scale(3.4333333333333)"><rect width="6" height="6"/></g>
<g transform="translate(680,280) scale(3.4333333333333)"><rect width="6" height="6"/></g>
<g transform="translate(760,280) scale(3.4333333333333)"><rect width="6" height="6"/></g>
<g transform="translate(780,280) scale(3.4333333333333)"><rect width="6" height="6"/></g>
<g transform="translate(800,280) scale(3.4333333333333)"><rect width="6" height="6"/></g>
<g transform="translate(820,280) scale(3.4333333333333)"><rect width="6" height="6"/></g>
<g transform="translate(860,280) scale(3.4333333333333)"><rect width="6" height="6"/></g>
<g transform="translate(900,280) scale(3.4333333333333)"><rect width="6" height="6"/></g>
<g transform="translate(920,280) scale(3.4333333333333)"><rect width="6" height="6"/></g>
<g transform="translate(140,300) scale(3.4333333333333)"><rect width="6" height="6"/></g>
<g transform="translate(180,300) scale(3.4333333333333)"><rect width="6" height="6"/></g>
<g transform="translate(200,300) scale(3.4333333333333)"><rect width="6" height="6"/></g>
<g transform="translate(240,300) scale(3.4333333333333)"><rect width="6" height="6"/></g>
<g transform="translate(260,300) scale(3.4333333333333)"><rect width="6" height="6"/></g>
<g transform="translate(280,300) scale(3.4333333333333)"><rect width="6" height="6"/></g>
<g transform="translate(360,300) scale(3.4333333333333)"><rect width="6" height="6"/></g>
<g transform="translate(480,300) scale(3.4333333333333)"><rect width="6" height="6"/></g>
<g transform="translate(500,300) scale(3.4333333333333)"><rect width="6" height="6"/></g>
<g transform="translate(520,300) scale(3.4333333333333)"><rect width="6" height="6"/></g>
<g transform="translate(540,300) scale(3.4333333333333)"><rect width="6" height="6"/></g>
<g transform="translate(580,300) scale(3.4333333333333)"><rect width="6" height="6"/></g>
<g transform="translate(600,300) scale(3.4333333333333)"><rect width="6" height="6"/></g>
<g transform="translate(700,300) scale(3.4333333333333)"><rect width="6" height="6"/></g>
<g transform="translate(760,300) scale(3.4333333333333)"><rect width="6" height="6"/></g>
<g transform="translate(780,300) scale(3.4333333333333)"><rect width="6" height="6"/></g>
<g transform="translate(820,300) scale(3.4333333333333)"><rect width="6" height="6"/></g>
<g transform="translate(840,300) scale(3.4333333333333)"><rect width="6" height="6"/></g>
<g transform="translate(40,320) scale(3.4333333333333)"><rect width="6" height="6"/></g>
<g transform="translate(60,320) scale(3.4333333333333)"><rect width="6" height="6"/></g>
<g transform="translate(80,320) scale(3.4333333333333)"><rect width="6" height="6"/></g>
<g transform="translate(100,320) scale(3.4333333333333)"><rect width="6" height="6"/></g>
<g transform="translate(160,320) scale(3.4333333333333)"><rect width="6" height="6"/></g>
<g transform="translate(220,320) scale(3.4333333333333)"><rect width="6" height="6"/></g>
<g transform="translate(240,320) scale(3.4333333333333)"><rect width="6" height="6"/></g>
<g transform="translate(280,320) scale(3.4333333333333)"><rect width="6" height="6"/></g>
<g transform="translate(340,320) scale(3.4333333333333)"><rect width="6" height="6"/></g>
<g transform="translate(380,320) scale(3.4333333333333)"><rect width="6" height="6"/></g>
<g transform="translate(460,320) scale(3.4333333333333)"><rect width="6" height="6"/></g>
<g transform="translate(480,320) scale(3.4333333333333)"><rect width="6" height="6"/></g>
<g transform="translate(520,320) scale(3.4333333333333)"><rect width="6" height="6"/></g>
<g transform="translate(540,320) scale(3.4333333333333)"><rect width="6" height="6"/></g>
<g transform="translate(600,320) scale(3.4333333333333)"><rect width="6" height="6"/></g>
<g transform="translate(680,320) scale(3.4333333333333)"><rect width="6" height="6"/></g>
<g transform="translate(740,320) scale(3.4333333333333)"><rect width="6" height="6"/></g>
<g transform="translate(760,320) scale(3.4333333333333)"><rect width="6" height="6"/></g>
<g transform="translate(780,320) scale(3.4333333333333)"><rect width="6" height="6"/></g>
<g transform="translate(860,320) scale(3.4333333333333)"><rect width="6" height="6"/></g>
<g transform="translate(40,340) scale(3.4333333333333)"><rect width="6" height="6"/></g>
<g transform="translate(80,340) scale(3.4333333333333)"><rect width="6" height="6"/></g>
<g transform="translate(100,340) scale(3.4333333333333)"><rect width="6" height="6"/></g>
<g transform="translate(140,340) scale(3.4333333333333)"><rect width="6" height="6"/></g>
<g transform="translate(180,340) scale(3.4333333333333)"><rect width="6" height="6"/></g>
<g transform="translate(200,340) scale(3.4333333333333)"><rect width="6" height="6"/></g>
<g transform="translate(260,340) scale(3.4333333333333)"><rect width="6" height="6"/></g>
<g transform="translate(280,340) scale(3.4333333333333)"><rect width="6" height="6"/></g>
<g transform="translate(320,340) scale(3.4333333333333)"><rect width="6" height="6"/></g>
<g transform="translate(340,340) scale(3.4333333333333)"><rect width="6" height="6"/></g>
<g transform="translate(360,340) scale(3.4333333333333)"><rect width="6" height="6"/></g>
<g transform="translate(480,340) scale(3.4333333333333)"><rect width="6" height="6"/></g>
<g transform="translate(600,340) scale(3.4333333333333)"><rect width="6" height="6"/></g>
<g transform="translate(680,340) scale(3.4333333333333)"><rect width="6" height="6"/></g>
<g transform="translate(720,340) scale(3.4333333333333)"><rect width="6" height="6"/></g>
<g transform="translate(760,340) scale(3.4333333333333)"><rect width="6" height="6"/></g>
<g transform="translate(780,340) scale(3.4333333333333)"><rect width="6" height="6"/></g>
<g transform="translate(840,340) scale(3.4333333333333)"><rect width="6" height="6"/></g>
<g transform="translate(860,340) scale(3.4333333333333)"><rect width="6" height="6"/></g>
<g transform="translate(880,340) scale(3.4333333333333)"><rect width="6" height="6"/></g>
<g transform="translate(920,340) scale(3.4333333333333)"><rect width="6" height="6"/></g>
<g transform="translate(40,360) scale(3.4333333333333)"><rect width="6" height="6"/></g>
<g transform="translate(80,360) scale(3.4333333333333)"><rect width="6" height="6"/></g>
<g transform="translate(120,360) scale(3.4333333333333)"><rect width="6" height="6"/></g>
<g transform="translate(160,360) scale(3.4333333333333)"><rect width="6" height="6"/></g>
<g transform="translate(220,360) scale(3.4333333333333)"><rect width="6" height="6"/></g>
<g transform="translate(240,360) scale(3.4333333333333)"><rect width="6" height="6"/></g>
<g transform="translate(260,360) scale(3.4333333333333)"><rect width="6" height="6"/></g>
<g transform="translate(320,360) scale(3.4333333333333)"><rect width="6" height="6"/></g>
<g transform="translate(380,360) scale(3.4333333333333)"><rect width="6" height="6"/></g>
<g transform="translate(440,360) scale(3.4333333333333)"><rect width="6" height="6"/></g>
<g transform="translate(460,360) scale(3.4333333333333)"><rect width="6" height="6"/></g>
<g transform="translate(500,360) scale(3.4333333333333)"><rect width="6" height="6"/></g>
<g transform="translate(520,360) scale(3.4333333333333)"><rect width="6" height="6"/></g>
<g transform="translate(540,360) scale(3.4333333333333)"><rect width="6" height="6"/></g>
<g transform="translate(560,360) scale(3.4333333333333)"><rect width="6" height="6"/></g>
<g transform="translate(580,360) scale(3.4333333333333)"><rect width="6" height="6"/></g>
<g transform="translate(620,360) scale(3.4333333333333)"><rect width="6" height="6"/></g>
<g transform="translate(660,360) scale(3.4333333333333)"><rect width="6" height="6"/></g>
<g transform="translate(760,360) scale(3.4333333333333)"><rect width="6" height="6"/></g>
<g transform="translate(780,360) scale(3.4333333333333)"><rect width="6" height="6"/></g>
<g transform="translate(880,360) scale(3.4333333333333)"><rect width="6" height="6"/></g>
<g transform="translate(120,380) scale(3.4333333333333)"><rect width="6" height="6"/></g>
<g transform="translate(140,380) scale(3.4333333333333)"><rect width="6" height="6"/></g>
<g transform="translate(200,380) scale(3.4333333333333)"><rect width="6" height="6"/></g>
<g transform="translate(220,380) scale(3.4333333333333)"><rect width="6" height="6"/></g>
<g transform="translate(260,380) scale(3.4333333333333)"><rect width="6" height="6"/></g>
<g transform="translate(300,380) scale(3.4333333333333)"><rect width="6" height="6"/></g>
<g transform="translate(340,380) scale(3.4333333333333)"><rect width="6" height="6"/></g>
<g transform="translate(400,380) scale(3.4333333333333)"><rect width="6" height="6"/></g>
<g transform="translate(460,380) scale(3.4333333333333)"><rect width="6" height="6"/></g>
<g transform="translate(500,380) scale(3.4333333333333)"><rect width="6" height="6"/></g>
<g transform="translate(520,380) scale(3.4333333333333)"><rect width="6" height="6"/></g>
<g transform="translate(560,380) scale(3.4333333333333)"><rect width="6" height="6"/></g>
<g transform="translate(580,380) scale(3.4333333333333)"><rect width="6" height="6"/></g>
<g transform="translate(600,380) scale(3.4333333333333)"><rect width="6" height="6"/></g>
<g transform="translate(620,380) scale(3.4333333333333)"><rect width="6" height="6"/></g>
<g transform="translate(640,380) scale(3.4333333333333)"><rect width="6" height="6"/></g>
<g transform="translate(760,380) scale(3.4333333333333)"><rect width="6" height="6"/></g>
<g transform="translate(820,380) scale(3.4333333333333)"><rect width="6" height="6"/></g>
<g transform="translate(840,380) scale(3.4333333333333)"><rect width="6" height="6"/></g>
<g transform="translate(860,380) scale(3.4333333333333)"><rect width="6" height="6"/></g>
<g transform="translate(880,380) scale(3.4333333333333)"><rect width="6" height="6"/></g>
<g transform="translate(80,400) scale(3.4333333333333)"><rect width="6" height="6"/></g>
<g transform="translate(120,400) scale(3.4333333333333)"><rect width="6" height="6"/></g>
<g transform="translate(140,400) scale(3.4333333333333)"><rect width="6" height="6"/></g>
<g transform="translate(160,400) scale(3.4333333333333)"><rect width="6" height="6"/></g>
<g transform="translate(180,400) scale(3.4333333333333)"><rect width="6" height="6"/></g>
<g transform="translate(200,400) scale(3.4333333333333)"><rect width="6" height="6"/></g>
<g transform="translate(220,400) scale(3.4333333333333)"><rect width="6" height="6"/></g>
<g transform="translate(280,400) scale(3.4333333333333)"><rect width="6" height="6"/></g>
<g transform="translate(300,400) scale(3.4333333333333)"><rect width="6" height="6"/></g>
<g transform="translate(320,400) scale(3.4333333333333)"><rect width="6" height="6"/></g>
<g transform="translate(360,400) scale(3.4333333333333)"><rect width="6" height="6"/></g>
<g transform="translate(380,400) scale(3.4333333333333)"><rect width="6" height="6"/></g>
<g transform="translate(400,400) scale(3.4333333333333)"><rect width="6" height="6"/></g>
<g transform="translate(420,400) scale(3.4333333333333)"><rect width="6" height="6"/></g>
<g transform="translate(460,400) scale(3.4333333333333)"><rect width="6" height="6"/></g>
<g transform="translate(540,400) scale(3.4333333333333)"><rect width="6" height="6"/></g>
<g transform="translate(560,400) scale(3.4333333333333)"><rect width="6" height="6"/></g>
<g transform="translate(640,400) scale(3.4333333333333)"><rect width="6" height="6"/></g>
<g transform="translate(740,400) scale(3.4333333333333)"><rect width="6" height="6"/></g>
<g transform="translate(760,400) scale(3.4333333333333)"><rect width="6" height="6"/></g>
<g transform="translate(820,400) scale(3.4333333333333)"><rect width="6" height="6"/></g>
<g transform="translate(840,400) scale(3.4333333333333)"><rect width="6" height="6"/></g>
<g transform="translate(920,400) scale(3.4333333333333)"><rect width="6" height="6"/></g>
<g transform="translate(40,420) scale(3.4333333333333)"><rect width="6" height="6"/></g>
<g transform="translate(80,420) scale(3.4333333333333)"><rect width="6" height="6"/></g>
<g transform="translate(100,420) scale(3.4333333333333)"><rect width="6" height="6"/></g>
<g transform="translate(140,420) scale(3.4333333333333)"><rect width="6" height="6"/></g>
<g transform="translate(180,420) scale(3.4333333333333)"><rect width="6" height="6"/></g>
<g transform="translate(200,420) scale(3.4333333333333)"><rect width="6" height="6"/></g>
<g transform="translate(220,420) scale(3.4333333333333)"><rect width="6" height="6"/></g>
<g transform="translate(260,420) scale(3.4333333333333)"><rect width="6" height="6"/></g>
<g transform="translate(280,420) scale(3.4333333333333)"><rect width="6" height="6"/></g>
<g transform="translate(300,420) scale(3.4333333333333)"><rect width="6" height="6"/></g>
<g transform="translate(360,420) scale(3.4333333333333)"><rect width="6" height="6"/></g>
<g transform="translate(440,420) scale(3.4333333333333)"><rect width="6" height="6"/></g>
<g transform="translate(460,420) scale(3.4333333333333)"><rect width="6" height="6"/></g>
<g transform="translate(500,420) scale(3.4333333333333)"><rect width="6" height="6"/></g>
<g transform="translate(540,420) scale(3.4333333333333)"><rect width="6" height="6"/></g>
<g transform="translate(560,420) scale(3.4333333333333)"><rect width="6" height="6"/></g>
<g transform="translate(620,420) scale(3.4333333333333)"><rect width="6" height="6"/></g>
<g transform="translate(700,420) scale(3.4333333333333)"><rect width="6" height="6"/></g>
<g transform="translate(720,420) scale(3.4333333333333)"><rect width="6" height="6"/></g>
<g transform="translate(740,420) scale(3.4333333333333)"><rect width="6" height="6"/></g>
<g transform="translate(760,420) scale(3.4333333333333)"><rect width="6" height="6"/></g>
<g transform="translate(780,420) scale(3.4333333333333)"><rect width="6" height="6"/></g>
<g transform="translate(820,420) scale(3.4333333333333)"><rect width="6" height="6"/></g>
<g transform="translate(840,420) scale(3.4333333333333)"><rect width="6" height="6"/></g>
<g transform="translate(880,420) scale(3.4333333333333)"><rect width="6" height="6"/></g>
<g transform="translate(920,420) scale(3.4333333333333)"><rect width="6" height="6"/></g>
<g transform="translate(80,440) scale(3.4333333333333)"><rect width="6" height="6"/></g>
<g transform="translate(120,440) scale(3.4333333333333)"><rect width="6" height="6"/></g>
<g transform="translate(140,440) scale(3.4333333333333)"><rect width="6" height="6"/></g>
<g transform="translate(160,440) scale(3.4333333333333)"><rect width="6" height="6"/></g>
<g transform="translate(180,440) scale(3.4333333333333)"><rect width="6" height="6"/></g>
<g transform="translate(200,440) scale(3.4333333333333)"><rect width="6" height="6"/></g>
<g transform="translate(220,440) scale(3.4333333333333)"><rect width="6" height="6"/></g>
<g transform="translate(260,440) scale(3.4333333333333)"><rect width="6" height="6"/></g>
<g transform="translate(340,440) scale(3.4333333333333)"><rect width="6" height="6"/></g>
<g transform="translate(380,440) scale(3.4333333333333)"><rect width="6" height="6"/></g>
<g transform="translate(400,440) scale(3.4333333333333)"><rect width="6" height="6"/></g>
<g transform="translate(420,440) scale(3.4333333333333)"><rect width="6" height="6"/></g>
<g transform="translate(440,440) scale(3.4333333333333)"><rect width="6" height="6"/></g>
<g transform="translate(460,440) scale(3.4333333333333)"><rect width="6" height="6"/></g>
<g transform="translate(480,440) scale(3.4333333333333)"><rect width="6" height="6"/></g>
<g transform="translate(500,440) scale(3.4333333333333)"><rect width="6" height="6"/></g>
<g transform="translate(520,440) scale(3.4333333333333)"><rect width="6" height="6"/></g>
<g transform="translate(560,440) scale(3.4333333333333)"><rect width="6" height="6"/></g>
<g transform="translate(660,440) scale(3.4333333333333)"><rect width="6" height="6"/></g>
<g transform="translate(680,440) scale(3.4333333333333)"><rect width="6" height="6"/></g>
<g transform="translate(700,440) scale(3.4333333333333)"><rect width="6" height="6"/></g>
<g transform="translate(760,440) scale(3.4333333333333)"><rect width="6" height="6"/></g>
<g transform="translate(780,440) scale(3.4333333333333)"><rect width="6" height="6"/></g>
<g transform="translate(800,440) scale(3.4333333333333)"><rect width="6" height="6"/></g>
<g transform="translate(820,440) scale(3.4333333333333)"><rect width="6" height="6"/></g>
<g transform="translate(840,440) scale(3.4333333333333)"><rect width="6" height="6"/></g>
<g transform="translate(860,440) scale(3.4333333333333)"><rect width="6" height="6"/></g>
<g transform="translate(900,440) scale(3.4333333333333)"><rect width="6" height="6"/></g>
<g transform="translate(920,440) scale(3.4333333333333)"><rect width="6" height="6"/></g>
<g transform="translate(100,460) scale(3.4333333333333)"><rect width="6" height="6"/></g>
<g transform="translate(120,460) scale(3.4333333333333)"><rect width="6" height="6"/></g>
<g transform="translate(200,460) scale(3.4333333333333)"><rect width="6" height="6"/></g>
<g transform="translate(240,460) scale(3.4333333333333)"><rect width="6" height="6"/></g>
<g transform="translate(260,460) scale(3.4333333333333)"><rect width="6" height="6"/></g>
<g transform="translate(280,460) scale(3.4333333333333)"><rect width="6" height="6"/></g>
<g transform="translate(300,460) scale(3.4333333333333)"><rect width="6" height="6"/></g>
<g transform="translate(320,460) scale(3.4333333333333)"><rect width="6" height="6"/></g>
<g transform="translate(360,460) scale(3.4333333333333)"><rect width="6" height="6"/></g>
<g transform="translate(380,460) scale(3.4333333333333)"><rect width="6" height="6"/></g>
<g transform="translate(400,460) scale(3.4333333333333)"><rect width="6" height="6"/></g>
<g transform="translate(440,460) scale(3.4333333333333)"><rect width="6" height="6"/></g>
<g transform="translate(520,460) scale(3.4333333333333)"><rect width="6" height="6"/></g>
<g transform="translate(540,460) scale(3.4333333333333)"><rect width="6" height="6"/></g>
<g transform="translate(560,460) scale(3.4333333333333)"><rect width="6" height="6"/></g>
<g transform="translate(580,460) scale(3.4333333333333)"><rect width="6" height="6"/></g>
<g transform="translate(620,460) scale(3.4333333333333)"><rect width="6" height="6"/></g>
<g transform="translate(660,460) scale(3.4333333333333)"><rect width="6" height="6"/></g>
<g transform="translate(680,460) scale(3.4333333333333)"><rect width="6" height="6"/></g>
<g transform="translate(720,460) scale(3.4333333333333)"><rect width="6" height="6"/></g>
<g transform="translate(760,460) scale(3.4333333333333)"><rect width="6" height="6"/></g>
<g transform="translate(840,460) scale(3.4333333333333)"><rect width="6" height="6"/></g>
<g transform="translate(860,460) scale(3.4333333333333)"><rect width="6" height="6"/></g>
<g transform="translate(880,460) scale(3.4333333333333)"><rect width="6" height="6"/></g>
<g transform="translate(80,480) scale(3.4333333333333)"><rect width="6" height="6"/></g>
<g transform="translate(100,480) scale(3.4333333333333)"><rect width="6" height="6"/></g>
<g transform="translate(120,480) scale(3.4333333333333)"><rect width="6" height="6"/></g>
<g transform="translate(160,480) scale(3.4333333333333)"><rect width="6" height="6"/></g>
<g transform="translate(200,480) scale(3.4333333333333)"><rect width="6" height="6"/></g>
<g transform="translate(220,480) scale(3.4333333333333)"><rect width="6" height="6"/></g>
<g transform="translate(240,480) scale(3.4333333333333)"><rect width="6" height="6"/></g>
<g transform="translate(260,480) scale(3.4333333333333)"><rect width="6" height="6"/></g>
<g transform="translate(400,480) scale(3.4333333333333)"><rect width="6" height="6"/></g>
<g transform="translate(440,480) scale(3.4333333333333)"><rect width="6" height="6"/></g>
<g transform="translate(480,480) scale(3.4333333333333)"><rect width="6" height="6"/></g>
<g transform="translate(520,480) scale(3.4333333333333)"><rect width="6" height="6"/></g>
<g transform="translate(580,480) scale(3.4333333333333)"><rect width="6" height="6"/></g>
<g transform="translate(600,480) scale(3.4333333333333)"><rect width="6" height="6"/></g>
<g transform="translate(640,480) scale(3.4333333333333)"><rect width="6" height="6"/></g>
<g transform="translate(660,480) scale(3.4333333333333)"><rect width="6" height="6"/></g>
<g transform="translate(680,480) scale(3.4333333333333)"><rect width="6" height="6"/></g>
<g transform="translate(760,480) scale(3.4333333333333)"><rect width="6" height="6"/></g>
<g transform="translate(800,480) scale(3.4333333333333)"><rect width="6" height="6"/></g>
<g transform="translate(840,480) scale(3.4333333333333)"><rect width="6" height="6"/></g>
<g transform="translate(860,480) scale(3.4333333333333)"><rect width="6" height="6"/></g>
<g transform="translate(880,480) scale(3.4333333333333)"><rect width="6" height="6"/></g>
<g transform="translate(40,500) scale(3.4333333333333)"><rect width="6" height="6"/></g>
<g transform="translate(100,500) scale(3.4333333333333)"><rect width="6" height="6"/></g>
<g transform="translate(120,500) scale(3.4333333333333)"><rect width="6" height="6"/></g>
<g transform="translate(200,500) scale(3.4333333333333)"><rect width="6" height="6"/></g>
<g transform="translate(220,500) scale(3.4333333333333)"><rect width="6" height="6"/></g>
<g transform="translate(240,500) scale(3.4333333333333)"><rect width="6" height="6"/></g>
<g transform="translate(260,500) scale(3.4333333333333)"><rect width="6" height="6"/></g>
<g transform="translate(320,500) scale(3.4333333333333)"><rect width="6" height="6"/></g>
<g transform="translate(340,500) scale(3.4333333333333)"><rect width="6" height="6"/></g>
<g transform="translate(360,500) scale(3.4333333333333)"><rect width="6" height="6"/></g>
<g transform="translate(380,500) scale(3.4333333333333)"><rect width="6" height="6"/></g>
<g transform="translate(400,500) scale(3.4333333333333)"><rect width="6" height="6"/></g>
<g transform="translate(440,500) scale(3.4333333333333)"><rect width="6" height="6"/></g>
<g transform="translate(520,500) scale(3.4333333333333)"><rect width="6" height="6"/></g>
<g transform="translate(620,500) scale(3.4333333333333)"><rect width="6" height="6"/></g>
<g transform="translate(640,500) scale(3.4333333333333)"><rect width="6" height="6"/></g>
<g transform="translate(660,500) scale(3.4333333333333)"><rect width="6" height="6"/></g>
<g transform="translate(700,500) scale(3.4333333333333)"><rect width="6" height="6"/></g>
<g transform="translate(760,500) scale(3.4333333333333)"><rect width="6" height="6"/></g>
<g transform="translate(840,500) scale(3.4333333333333)"><rect width="6" height="6"/></g>
<g transform="translate(860,500) scale(3.4333333333333)"><rect width="6" height="6"/></g>
<g transform="translate(40,520) scale(3.4333333333333)"><rect width="6" height="6"/></g>
<g transform="translate(120,520) scale(3.4333333333333)"><rect width="6" height="6"/></g>
<g transform="translate(140,520) scale(3.4333333333333)"><rect width="6" height="6"/></g>
<g transform="translate(160,520) scale(3.4333333333333)"><rect width="6" height="6"/></g>
<g transform="translate(180,520) scale(3.4333333333333)"><rect width="6" height="6"/></g>
<g transform="translate(200,520) scale(3.4333333333333)"><rect width="6" height="6"/></g>
<g transform="translate(220,520) scale(3.4333333333333)"><rect width="6" height="6"/></g>
<g transform="translate(260,520) scale(3.4333333333333)"><rect width="6" height="6"/></g>
<g transform="translate(280,520) scale(3.4333333333333)"><rect width="6" height="6"/></g>
<g transform="translate(320,520) scale(3.4333333333333)"><rect width="6" height="6"/></g>
<g transform="translate(360,520) scale(3.4333333333333)"><rect width="6" height="6"/></g>
<g transform="translate(400,520) scale(3.4333333333333)"><rect width="6" height="6"/></g>
<g transform="translate(420,520) scale(3.4333333333333)"><rect width="6" height="6"/></g>
<g transform="translate(440,520) scale(3.4333333333333)"><rect width="6" height="6"/></g>
<g transform="translate(460,520) scale(3.4333333333333)"><rect width="6" height="6"/></g>
<g transform="translate(480,520) scale(3.4333333333333)"><rect width="6" height="6"/></g>
<g transform="translate(500,520) scale(3.4333333333333)"><rect width="6" height="6"/></g>
<g transform="translate(520,520) scale(3.4333333333333)"><rect width="6" height="6"/></g>
<g transform="translate(540,520) scale(3.4333333333333)"><rect width="6" height="6"/></g>
<g transform="translate(560,520) scale(3.4333333333333)"><rect width="6" height="6"/></g>
<g transform="translate(580,520) scale(3.4333333333333)"><rect width="6" height="6"/></g>
<g transform="translate(680,520) scale(3.4333333333333)"><rect width="6" height="6"/></g>
<g transform="translate(700,520) scale(3.4333333333333)"><rect width="6" height="6"/></g>
<g transform="translate(720,520) scale(3.4333333333333)"><rect width="6" height="6"/></g>
<g transform="translate(760,520) scale(3.4333333333333)"><rect width="6" height="6"/></g>
<g transform="translate(780,520) scale(3.4333333333333)"><rect width="6" height="6"/></g>
<g transform="translate(800,520) scale(3.4333333333333)"><rect width="6" height="6"/></g>
<g transform="translate(820,520) scale(3.4333333333333)"><rect width="6" height="6"/></g>
<g transform="translate(840,520) scale(3.4333333333333)"><rect width="6" height="6"/></g>
<g transform="translate(880,520) scale(3.4333333333333)"><rect width="6" height="6"/></g>
<g transform="translate(900,520) scale(3.4333333333333)"><rect width="6" height="6"/></g>
<g transform="translate(80,540) scale(3.4333333333333)"><rect width="6" height="6"/></g>
<g transform="translate(120,540) scale(3.4333333333333)"><rect width="6" height="6"/></g>
<g transform="translate(200,540) scale(3.4333333333333)"><rect width="6" height="6"/></g>
<g transform="translate(260,540) scale(3.4333333333333)"><rect width="6" height="6"/></g>
<g transform="translate(280,540) scale(3.4333333333333)"><rect width="6" height="6"/></g>
<g transform="translate(300,540) scale(3.4333333333333)"><rect width="6" height="6"/></g>
<g transform="translate(320,540) scale(3.4333333333333)"><rect width="6" height="6"/></g>
<g transform="translate(340,540) scale(3.4333333333333)"><rect width="6" height="6"/></g>
<g transform="translate(380,540) scale(3.4333333333333)"><rect width="6" height="6"/></g>
<g transform="translate(400,540) scale(3.4333333333333)"><rect width="6" height="6"/></g>
<g transform="translate(420,540) scale(3.4333333333333)"><rect width="6" height="6"/></g>
<g transform="translate(480,540) scale(3.4333333333333)"><rect width="6" height="6"/></g>
<g transform="translate(580,540) scale(3.4333333333333)"><rect width="6" height="6"/></g>
<g transform="translate(600,540) scale(3.4333333333333)"><rect width="6" height="6"/></g>
<g transform="translate(640,540) scale(3.4333333333333)"><rect width="6" height="6"/></g>
<g transform="translate(660,540) scale(3.4333333333333)"><rect width="6" height="6"/></g>
<g transform="translate(700,540) scale(3.4333333333333)"><rect width="6" height="6"/></g>
<g transform="translate(720,540) scale(3.4333333333333)"><rect width="6" height="6"/></g>
<g transform="translate(740,540) scale(3.4333333333333)"><rect width="6" height="6"/></g>
<g transform="translate(760,540) scale(3.4333333333333)"><rect width="6" height="6"/></g>
<g transform="translate(800,540) scale(3.4333333333333)"><rect width="6" height="6"/></g>
<g transform="translate(860,540) scale(3.4333333333333)"><rect width="6" height="6"/></g>
<g transform="translate(900,540) scale(3.4333333333333)"><rect width="6" height="6"/></g>
<g transform="translate(40,560) scale(3.4333333333333)"><rect width="6" height="6"/></g>
<g transform="translate(60,560) scale(3.4333333333333)"><rect width="6" height="6"/></g>
<g transform="translate(100,560) scale(3.4333333333333)"><rect width="6" height="6"/></g>
<g transform="translate(120,560) scale(3.4333333333333)"><rect width="6" height="6"/></g>
<g transform="translate(140,560) scale(3.4333333333333)"><rect width="6" height="6"/></g>
<g transform="translate(160,560) scale(3.4333333333333)"><rect width="6" height="6"/></g>
<g transform="translate(220,560) scale(3.4333333333333)"><rect width="6" height="6"/></g>
<g transform="translate(280,560) scale(3.4333333333333)"><rect width="6" height="6"/></g>
<g transform="translate(320,560) scale(3.4333333333333)"><rect width="6" height="6"/></g>
<g transform="translate(340,560) scale(3.4333333333333)"><rect width="6" height="6"/></g>
<g transform="translate(360,560) scale(3.4333333333333)"><rect width="6" height="6"/></g>
<g transform="translate(380,560) scale(3.4333333333333)"><rect width="6" height="6"/></g>
<g transform="translate(440,560) scale(3.4333333333333)"><rect width="6" height="6"/></g>
<g transform="translate(480,560) scale(3.4333333333333)"><rect width="6" height="6"/></g>
<g transform="translate(500,560) scale(3.4333333333333)"><rect width="6" height="6"/></g>
<g transform="translate(580,560) scale(3.4333333333333)"><rect width="6" height="6"/></g>
<g transform="translate(620,560) scale(3.4333333333333)"><rect width="6" height="6"/></g>
<g transform="translate(700,560) scale(3.4333333333333)"><rect width="6" height="6"/></g>
<g transform="translate(760,560) scale(3.4333333333333)"><rect width="6" height="6"/></g>
<g transform="translate(860,560) scale(3.4333333333333)"><rect width="6" height="6"/></g>
<g transform="translate(880,560) scale(3.4333333333333)"><rect width="6" height="6"/></g>
<g transform="translate(920,560) scale(3.4333333333333)"><rect width="6" height="6"/></g>
<g transform="translate(60,580) scale(3.4333333333333)"><rect width="6" height="6"/></g>
<g transform="translate(140,580) scale(3.4333333333333)"><rect width="6" height="6"/></g>
<g transform="translate(180,580) scale(3.4333333333333)"><rect width="6" height="6"/></g>
<g transform="translate(220,580) scale(3.4333333333333)"><rect width="6" height="6"/></g>
<g transform="translate(240,580) scale(3.4333333333333)"><rect width="6" height="6"/></g>
<g transform="translate(280,580) scale(3.4333333333333)"><rect width="6" height="6"/></g>
<g transform="translate(360,580) scale(3.4333333333333)"><rect width="6" height="6"/></g>
<g transform="translate(380,580) scale(3.4333333333333)"><rect width="6" height="6"/></g>
<g transform="translate(400,580) scale(3.4333333333333)"><rect width="6" height="6"/></g>
<g transform="translate(440,580) scale(3.4333333333333)"><rect width="6" height="6"/></g>
<g transform="translate(520,580) scale(3.4333333333333)"><rect width="6" height="6"/></g>
<g transform="translate(540,580) scale(3.4333333333333)"><rect width="6" height="6"/></g>
<g transform="translate(560,580) scale(3.4333333333333)"><rect width="6" height="6"/></g>
<g transform="translate(640,580) scale(3.4333333333333)"><rect width="6" height="6"/></g>
<g transform="translate(660,580) scale(3.4333333333333)"><rect width="6" height="6"/></g>
<g transform="translate(700,580) scale(3.4333333333333)"><rect width="6" height="6"/></g>
<g transform="translate(720,580) scale(3.4333333333333)"><rect width="6" height="6"/></g>
<g transform="translate(780,580) scale(3.4333333333333)"><rect width="6" height="6"/></g>
<g transform="translate(800,580) scale(3.4333333333333)"><rect width="6" height="6"/></g>
<g transform="translate(880,580) scale(3.4333333333333)"><rect width="6" height="6"/></g>
<g transform="translate(900,580) scale(3.4333333333333)"><rect width="6" height="6"/></g>
<g transform="translate(80,600) scale(3.4333333333333)"><rect width="6" height="6"/></g>
<g transform="translate(120,600) scale(3.4333333333333)"><rect width="6" height="6"/></g>
<g transform="translate(140,600) scale(3.4333333333333)"><rect width="6" height="6"/></g>
<g transform="translate(160,600) scale(3.4333333333333)"><rect width="6" height="6"/></g>
<g transform="translate(200,600) scale(3.4333333333333)"><rect width="6" height="6"/></g>
<g transform="translate(220,600) scale(3.4333333333333)"><rect width="6" height="6"/></g>
<g transform="translate(260,600) scale(3.4333333333333)"><rect width="6" height="6"/></g>
<g transform="translate(300,600) scale(3.4333333333333)"><rect width="6" height="6"/></g>
<g transform="translate(320,600) scale(3.4333333333333)"><rect width="6" height="6"/></g>
<g transform="translate(340,600) scale(3.4333333333333)"><rect width="6" height="6"/></g>
<g transform="translate(400,600) scale(3.4333333333333)"><rect width="6" height="6"/></g>
<g transform="translate(420,600) scale(3.4333333333333)"><rect width="6" height="6"/></g>
<g transform="translate(480,600) scale(3.4333333333333)"><rect width="6" height="6"/></g>
<g transform="translate(580,600) scale(3.4333333333333)"><rect width="6" height="6"/></g>
<g transform="translate(640,600) scale(3.4333333333333)"><rect width="6" height="6"/></g>
<g transform="translate(660,600) scale(3.4333333333333)"><rect width="6" height="6"/></g>
<g transform="translate(680,600) scale(3.4333333333333)"><rect width="6" height="6"/></g>
<g transform="translate(700,600) scale(3.4333333333333)"><rect width="6" height="6"/></g>
<g transform="translate(800,600) scale(3.4333333333333)"><rect width="6" height="6"/></g>
<g transform="translate(820,600) scale(3.4333333333333)"><rect width="6" height="6"/></g>
<g transform="translate(840,600) scale(3.4333333333333)"><rect width="6" height="6"/></g>
<g transform="translate(900,600) scale(3.4333333333333)"><rect width="6" height="6"/></g>
<g transform="translate(60,620) scale(3.4333333333333)"><rect width="6" height="6"/></g>
<g transform="translate(140,620) scale(3.4333333333333)"><rect width="6" height="6"/></g>
<g transform="translate(180,620) scale(3.4333333333333)"><rect width="6" height="6"/></g>
<g transform="translate(220,620) scale(3.4333333333333)"><rect width="6" height="6"/></g>
<g transform="translate(240,620) scale(3.4333333333333)"><rect width="6" height="6"/></g>
<g transform="translate(260,620) scale(3.4333333333333)"><rect width="6" height="6"/></g>
<g transform="translate(300,620) scale(3.4333333333333)"><rect width="6" height="6"/></g>
<g transform="translate(440,620) scale(3.4333333333333)"><rect width="6" height="6"/></g>
<g transform="translate(460,620) scale(3.4333333333333)"><rect width="6" height="6"/></g>
<g transform="translate(500,620) scale(3.4333333333333)"><rect width="6" height="6"/></g>
<g transform="translate(540,620) scale(3.4333333333333)"><rect width="6" height="6"/></g>
<g transform="translate(560,620) scale(3.4333333333333)"><rect width="6" height="6"/></g>
<g transform="translate(640,620) scale(3.4333333333333)"><rect width="6" height="6"/></g>
<g transform="translate(680,620) scale(3.4333333333333)"><rect width="6" height="6"/></g>
<g transform="translate(720,620) scale(3.4333333333333)"><rect width="6" height="6"/></g>
<g transform="translate(740,620) scale(3.4333333333333)"><rect width="6" height="6"/></g>
<g transform="translate(780,620) scale(3.4333333333333)"><rect width="6" height="6"/></g>
<g transform="translate(840,620) scale(3.4333333333333)"><rect width="6" height="6"/></g>
<g transform="translate(860,620) scale(3.4333333333333)"><rect width="6" height="6"/></g>
<g transform="translate(900,620) scale(3.4333333333333)"><rect width="6" height="6"/></g>
<g transform="translate(920,620) scale(3.4333333333333)"><rect width="6" height="6"/></g>
<g transform="translate(40,640) scale(3.4333333333333)"><rect width="6" height="6"/></g>
<g transform="translate(120,640) scale(3.4333333333333)"><rect width="6" height="6"/></g>
<g transform="translate(160,640) scale(3.4333333333333)"><rect width="6" height="6"/></g>
<g transform="translate(240,640) scale(3.4333333333333)"><rect width="6" height="6"/></g>
<g transform="translate(260,640) scale(3.4333333333333)"><rect width="6" height="6"/></g>
<g transform="translate(320,640) scale(3.4333333333333)"><rect width="6" height="6"/></g>
<g transform="translate(340,640) scale(3.4333333333333)"><rect width="6" height="6"/></g>
<g transform="translate(360,640) scale(3.4333333333333)"><rect width="6" height="6"/></g>
<g transform="translate(380,640) scale(3.4333333333333)"><rect width="6" height="6"/></g>
<g transform="translate(400,640) scale(3.4333333333333)"><rect width="6" height="6"/></g>
<g transform="translate(420,640) scale(3.4333333333333)"><rect width="6" height="6"/></g>
<g transform="translate(520,640) scale(3.4333333333333)"><rect width="6" height="6"/></g>
<g transform="translate(580,640) scale(3.4333333333333)"><rect width="6" height="6"/></g>
<g transform="translate(640,640) scale(3.4333333333333)"><rect width="6" height="6"/></g>
<g transform="translate(660,640) scale(3.4333333333333)"><rect width="6" height="6"/></g>
<g transform="translate(680,640) scale(3.4333333333333)"><rect width="6" height="6"/></g>
<g transform="translate(740,640) scale(3.4333333333333)"><rect width="6" height="6"/></g>
<g transform="translate(780,640) scale(3.4333333333333)"><rect width="6" height="6"/></g>
<g transform="translate(800,640) scale(3.4333333333333)"><rect width="6" height="6"/></g>
<g transform="translate(900,640) scale(3.4333333333333)"><rect width="6" height="6"/></g>
<g transform="translate(100,660) scale(3.4333333333333)"><rect width="6" height="6"/></g>
<g transform="translate(220,660) scale(3.4333333333333)"><rect width="6" height="6"/></g>
<g transform="translate(260,660) scale(3.4333333333333)"><rect width="6" height="6"/></g>
<g transform="translate(280,660) scale(3.4333333333333)"><rect width="6" height="6"/></g>
<g transform="translate(300,660) scale(3.4333333333333)"><rect width="6" height="6"/></g>
<g transform="translate(320,660) scale(3.4333333333333)"><rect width="6" height="6"/></g>
<g transform="translate(340,660) scale(3.4333333333333)"><rect width="6" height="6"/></g>
<g transform="translate(380,660) scale(3.4333333333333)"><rect width="6" height="6"/></g>
<g transform="translate(400,660) scale(3.4333333333333)"><rect width="6" height="6"/></g>
<g transform="translate(420,660) scale(3.4333333333333)"><rect width="6" height="6"/></g>
<g transform="translate(440,660) scale(3.4333333333333)"><rect width="6" height="6"/></g>
<g transform="translate(460,660) scale(3.4333333333333)"><rect width="6" height="6"/></g>
<g transform="translate(480,660) scale(3.4333333333333)"><rect width="6" height="6"/></g>
<g transform="translate(500,660) scale(3.4333333333333)"><rect width="6" height="6"/></g>
<g transform="translate(600,660) scale(3.4333333333333)"><rect width="6" height="6"/></g>
<g transform="translate(640,660) scale(3.4333333333333)"><rect width="6" height="6"/></g>
<g transform="translate(680,660) scale(3.4333333333333)"><rect width="6" height="6"/></g>
<g transform="translate(700,660) scale(3.4333333333333)"><rect width="6" height="6"/></g>
<g transform="translate(720,660) scale(3.4333333333333)"><rect width="6" height="6"/></g>
<g transform="translate(780,660) scale(3.4333333333333)"><rect width="6" height="6"/></g>
<g transform="translate(840,660) scale(3.4333333333333)"><rect width="6" height="6"/></g>
<g transform="translate(860,660) scale(3.4333333333333)"><rect width="6" height="6"/></g>
<g transform="translate(900,660) scale(3.4333333333333)"><rect width="6" height="6"/></g>
<g transform="translate(920,660) scale(3.4333333333333)"><rect width="6" height="6"/></g>
<g transform="translate(100,680) scale(3.4333333333333)"><rect width="6" height="6"/></g>
<g transform="translate(140,680) scale(3.4333333333333)"><rect width="6" height="6"/></g>
<g transform="translate(160,680) scale(3.4333333333333)"><rect width="6" height="6"/></g>
<g transform="translate(260,680) scale(3.4333333333333)"><rect width="6" height="6"/></g>
<g transform="translate(280,680) scale(3.4333333333333)"><rect width="6" height="6"/></g>
<g transform="translate(300,680) scale(3.4333333333333)"><rect width="6" height="6"/></g>
<g transform="translate(380,680) scale(3.4333333333333)"><rect width="6" height="6"/></g>
<g transform="translate(400,680) scale(3.4333333333333)"><rect width="6" height="6"/></g>
<g transform="translate(420,680) scale(3.4333333333333)"><rect width="6" height="6"/></g>
<g transform="translate(440,680) scale(3.4333333333333)"><rect width="6" height="6"/></g>
<g transform="translate(460,680) scale(3.4333333333333)"><rect width="6" height="6"/></g>
<g transform="translate(480,680) scale(3.4333333333333)"><rect width="6" height="6"/></g>
<g transform="translate(540,680) scale(3.4333333333333)"><rect width="6" height="6"/></g>
<g transform="translate(560,680) scale(3.4333333333333)"><rect width="6" height="6"/></g>
<g transform="translate(580,680) scale(3.4333333333333)"><rect width="6" height="6"/></g>
<g transform="translate(600,680) scale(3.4333333333333)"><rect width="6" height="6"/></g>
<g transform="translate(660,680) scale(3.4333333333333)"><rect width="6" height="6"/></g>
<g transform="translate(700,680) scale(3.4333333333333)"><rect width="6" height="6"/></g>
<g transform="translate(760,680) scale(3.4333333333333)"><rect width="6" height="6"/></g>
<g transform="translate(800,680) scale(3.4333333333333)"><rect width="6" height="6"/></g>
<g transform="translate(820,680) scale(3.4333333333333)"><rect width="6" height="6"/></g>
<g transform="translate(900,680) scale(3.4333333333333)"><rect width="6" height="6"/></g>
<g transform="translate(40,700) scale(3.4333333333333)"><rect width="6" height="6"/></g>
<g transform="translate(60,700) scale(3.4333333333333)"><rect width="6" height="6"/></g>
<g transform="translate(100,700) scale(3.4333333333333)"><rect width="6" height="6"/></g>
<g transform="translate(120,700) scale(3.4333333333333)"><rect width="6" height="6"/></g>
<g transform="translate(200,700) scale(3.4333333333333)"><rect width="6" height="6"/></g>
<g transform="translate(260,700) scale(3.4333333333333)"><rect width="6" height="6"/></g>
<g transform="translate(280,700) scale(3.4333333333333)"><rect width="6" height="6"/></g>
<g transform="translate(300,700) scale(3.4333333333333)"><rect width="6" height="6"/></g>
<g transform="translate(340,700) scale(3.4333333333333)"><rect width="6" height="6"/></g>
<g transform="translate(360,700) scale(3.4333333333333)"><rect width="6" height="6"/></g>
<g transform="translate(400,700) scale(3.4333333333333)"><rect width="6" height="6"/></g>
<g transform="translate(420,700) scale(3.4333333333333)"><rect width="6" height="6"/></g>
<g transform="translate(500,700) scale(3.4333333333333)"><rect width="6" height="6"/></g>
<g transform="translate(560,700) scale(3.4333333333333)"><rect width="6" height="6"/></g>
<g transform="translate(600,700) scale(3.4333333333333)"><rect width="6" height="6"/></g>
<g transform="translate(660,700) scale(3.4333333333333)"><rect width="6" height="6"/></g>
<g transform="translate(680,700) scale(3.4333333333333)"><rect width="6" height="6"/></g>
<g transform="translate(720,700) scale(3.4333333333333)"><rect width="6" height="6"/></g>
<g transform="translate(740,700) scale(3.4333333333333)"><rect width="6" height="6"/></g>
<g transform="translate(780,700) scale(3.4333333333333)"><rect width="6" height="6"/></g>
<g transform="translate(820,700) scale(3.4333333333333)"><rect width="6" height="6"/></g>
<g transform="translate(860,700) scale(3.4333333333333)"><rect width="6" height="6"/></g>
<g transform="translate(880,700) scale(3.4333333333333)"><rect width="6" height="6"/></g>
<g transform="translate(120,720) scale(3.4333333333333)"><rect width="6" height="6"/></g>
<g transform="translate(160,720) scale(3.4333333333333)"><rect width="6" height="6"/></g>
<g transform="translate(260,720) scale(3.4333333333333)"><rect width="6" height="6"/></g>
<g transform="translate(300,720) scale(3.4333333333333)"><rect width="6" height="6"/></g>
<g transform="translate(320,720) scale(3.4333333333333)"><rect width="6" height="6"/></g>
<g transform="translate(380,720) scale(3.4333333333333)"><rect width="6" height="6"/></g>
<g transform="translate(440,720) scale(3.4333333333333)"><rect width="6" height="6"/></g>
<g transform="translate(460,720) scale(3.4333333333333)"><rect width="6" height="6"/></g>
<g transform="translate(520,720) scale(3.4333333333333)"><rect width="6" height="6"/></g>
<g transform="translate(540,720) scale(3.4333333333333)"><rect width="6" height="6"/></g>
<g transform="translate(560,720) scale(3.4333333333333)"><rect width="6" height="6"/></g>
<g transform="translate(580,720) scale(3.4333333333333)"><rect width="6" height="6"/></g>
<g transform="translate(640,720) scale(3.4333333333333)"><rect width="6" height="6"/></g>
<g transform="translate(660,720) scale(3.4333333333333)"><rect width="6" height="6"/></g>
<g transform="translate(800,720) scale(3.4333333333333)"><rect width="6" height="6"/></g>
<g transform="translate(820,720) scale(3.4333333333333)"><rect width="6" height="6"/></g>
<g transform="translate(840,720) scale(3.4333333333333)"><rect width="6" height="6"/></g>
<g transform="translate(60,740) scale(3.4333333333333)"><rect width="6" height="6"/></g>
<g transform="translate(80,740) scale(3.4333333333333)"><rect width="6" height="6"/></g>
<g transform="translate(100,740) scale(3.4333333333333)"><rect width="6" height="6"/></g>
<g transform="translate(120,740) scale(3.4333333333333)"><rect width="6" height="6"/></g>
<g transform="translate(220,740) scale(3.4333333333333)"><rect width="6" height="6"/></g>
<g transform="translate(280,740) scale(3.4333333333333)"><rect width="6" height="6"/></g>
<g transform="translate(320,740) scale(3.4333333333333)"><rect width="6" height="6"/></g>
<g transform="translate(360,740) scale(3.4333333333333)"><rect width="6" height="6"/></g>
<g transform="translate(380,740) scale(3.4333333333333)"><rect width="6" height="6"/></g>
<g transform="translate(400,740) scale(3.4333333333333)"><rect width="6" height="6"/></g>
<g transform="translate(420,740) scale(3.4333333333333)"><rect width="6" height="6"/></g>
<g transform="translate(440,740) scale(3.4333333333333)"><rect width="6" height="6"/></g>
<g transform="translate(620,740) scale(3.4333333333333)"><rect width="6" height="6"/></g>
<g transform="translate(660,740) scale(3.4333333333333)"><rect width="6" height="6"/></g>
<g transform="translate(740,740) scale(3.4333333333333)"><rect width="6" height="6"/></g>
<g transform="translate(760,740) scale(3.4333333333333)"><rect width="6" height="6"/></g>
<g transform="translate(820,740) scale(3.4333333333333)"><rect width="6" height="6"/></g>
<g transform="translate(880,740) scale(3.4333333333333)"><rect width="6" height="6"/></g>
<g transform="translate(40,760) scale(3.4333333333333)"><rect width="6" height="6"/></g>
<g transform="translate(100,760) scale(3.4333333333333)"><rect width="6" height="6"/></g>
<g transform="translate(120,760) scale(3.4333333333333)"><rect width="6" height="6"/></g>
<g transform="translate(160,760) scale(3.4333333333333)"><rect width="6" height="6"/></g>
<g transform="translate(180,760) scale(3.4333333333333)"><rect width="6" height="6"/></g>
<g transform="translate(260,760) scale(3.4333333333333)"><rect width="6" height="6"/></g>
<g transform="translate(300,760) scale(3.4333333333333)"><rect width="6" height="6"/></g>
<g transform="translate(360,760) scale(3.4333333333333)"><rect width="6" height="6"/></g>
<g transform="translate(400,760) scale(3.4333333333333)"><rect width="6" height="6"/></g>
<g transform="translate(440,760) scale(3.4333333333333)"><rect width="6" height="6"/></g>
<g transform="translate(460,760) scale(3.4333333333333)"><rect width="6" height="6"/></g>
<g transform="translate(480,760) scale(3.4333333333333)"><rect width="6" height="6"/></g>
<g transform="translate(500,760) scale(3.4333333333333)"><rect width="6" height="6"/></g>
<g transform="translate(520,760) scale(3.4333333333333)"><rect width="6" height="6"/></g>
<g transform="translate(540,760) scale(3.4333333333333)"><rect width="6" height="6"/></g>
<g transform="translate(580,760) scale(3.4333333333333)"><rect width="6" height="6"/></g>
<g transform="translate(660,760) scale(3.4333333333333)"><rect width="6" height="6"/></g>
<g transform="translate(700,760) scale(3.4333333333333)"><rect width="6" height="6"/></g>
<g transform="translate(760,760) scale(3.4333333333333)"><rect width="6" height="6"/></g>
<g transform="translate(780,760) scale(3.4333333333333)"><rect width="6" height="6"/></g>
<g transform="translate(800,760) scale(3.4333333333333)"><rect width="6" height="6"/></g>
<g transform="translate(820,760) scale(3.4333333333333)"><rect width="6" height="6"/></g>
<g transform="translate(840,760) scale(3.4333333333333)"><rect width="6" height="6"/></g>
<g transform="translate(860,760) scale(3.4333333333333)"><rect width="6" height="6"/></g>
<g transform="translate(920,760) scale(3.4333333333333)"><rect width="6" height="6"/></g>
<g transform="translate(200,780) scale(3.4333333333333)"><rect width="6" height="6"/></g>
<g transform="translate(260,780) scale(3.4333333333333)"><rect width="6" height="6"/></g>
<g transform="translate(320,780) scale(3.4333333333333)"><rect width="6" height="6"/></g>
<g transform="translate(340,780) scale(3.4333333333333)"><rect width="6" height="6"/></g>
<g transform="translate(380,780) scale(3.4333333333333)"><rect width="6" height="6"/></g>
<g transform="translate(400,780) scale(3.4333333333333)"><rect width="6" height="6"/></g>
<g transform="translate(420,780) scale(3.4333333333333)"><rect width="6" height="6"/></g>
<g transform="translate(440,780) scale(3.4333333333333)"><rect width="6" height="6"/></g>
<g transform="translate(520,780) scale(3.4333333333333)"><rect width="6" height="6"/></g>
<g transform="translate(580,780) scale(3.4333333333333)"><rect width="6" height="6"/></g>
<g transform="translate(600,780) scale(3.4333333333333)"><rect width="6" height="6"/></g>
<g transform="translate(620,780) scale(3.4333333333333)"><rect width="6" height="6"/></g>
<g transform="translate(660,780) scale(3.4333333333333)"><rect width="6" height="6"/></g>
<g transform="translate(680,780) scale(3.4333333333333)"><rect width="6" height="6"/></g>
<g transform="translate(720,780) scale(3.4333333333333)"><rect width="6" height="6"/></g>
<g transform="translate(740,780) scale(3.4333333333333)"><rect width="6" height="6"/></g>
<g transform="translate(760,780) scale(3.4333333333333)"><rect width="6" height="6"/></g>
<g transform="translate(840,780) scale(3.4333333333333)"><rect width="6" height="6"/></g>
<g transform="translate(860,780) scale(3.4333333333333)"><rect width="6" height="6"/></g>
<g transform="translate(880,780) scale(3.4333333333333)"><rect width="6" height="6"/></g>
<g transform="translate(900,780) scale(3.4333333333333)"><rect width="6" height="6"/></g>
<g transform="translate(240,800) scale(3.4333333333333)"><rect width="6" height="6"/></g>
<g transform="translate(260,800) scale(3.4333333333333)"><rect width="6" height="6"/></g>
<g transform="translate(280,800) scale(3.4333333333333)"><rect width="6" height="6"/></g>
<g transform="translate(300,800) scale(3.4333333333333)"><rect width="6" height="6"/></g>
<g transform="translate(320,800) scale(3.4333333333333)"><rect width="6" height="6"/></g>
<g transform="translate(400,800) scale(3.4333333333333)"><rect width="6" height="6"/></g>
<g transform="translate(440,800) scale(3.4333333333333)"><rect width="6" height="6"/></g>
<g transform="translate(480,800) scale(3.4333333333333)"><rect width="6" height="6"/></g>
<g transform="translate(520,800) scale(3.4333333333333)"><rect width="6" height="6"/></g>
<g transform="translate(540,800) scale(3.4333333333333)"><rect width="6" height="6"/></g>
<g transform="translate(580,800) scale(3.4333333333333)"><rect width="6" height="6"/></g>
<g transform="translate(600,800) scale(3.4333333333333)"><rect width="6" height="6"/></g>
<g transform="translate(620,800) scale(3.4333333333333)"><rect width="6" height="6"/></g>
<g transform="translate(640,800) scale(3.4333333333333)"><rect width="6" height="6"/></g>
<g transform="translate(680,800) scale(3.4333333333333)"><rect width="6" height="6"/></g>
<g transform="translate(700,800) scale(3.4333333333333)"><rect width="6" height="6"/></g>
<g transform="translate(720,800) scale(3.4333333333333)"><rect width="6" height="6"/></g>
<g transform="translate(760,800) scale(3.4333333333333)"><rect width="6" height="6"/></g>
<g transform="translate(800,800) scale(3.4333333333333)"><rect width="6" height="6"/></g>
<g transform="translate(840,800) scale(3.4333333333333)"><rect width="6" height="6"/></g>
<g transform="translate(860,800) scale(3.4333333333333)"><rect width="6" height="6"/></g>
<g transform="translate(880,800) scale(3.4333333333333)"><rect width="6" height="6"/></g>
<g transform="translate(900,800) scale(3.4333333333333)"><rect width="6" height="6"/></g>
<g transform="translate(920,800) scale(3.4333333333333)"><rect width="6" height="6"/></g>
<g transform="translate(200,820) scale(3.4333333333333)"><rect width="6" height="6"/></g>
<g transform="translate(220,820) scale(3.4333333333333)"><rect width="6" height="6"/></g>
<g transform="translate(320,820) scale(3.4333333333333)"><rect width="6" height="6"/></g>
<g transform="translate(340,820) scale(3.4333333333333)"><rect width="6" height="6"/></g>
<g transform="translate(360,820) scale(3.4333333333333)"><rect width="6" height="6"/></g>
<g transform="translate(400,820) scale(3.4333333333333)"><rect width="6" height="6"/></g>
<g transform="translate(440,820) scale(3.4333333333333)"><rect width="6" height="6"/></g>
<g transform="translate(520,820) scale(3.4333333333333)"><rect width="6" height="6"/></g>
<g transform="translate(560,820) scale(3.4333333333333)"><rect width="6" height="6"/></g>
<g transform="translate(580,820) scale(3.4333333333333)"><rect width="6" height="6"/></g>
<g transform="translate(600,820) scale(3.4333333333333)"><rect width="6" height="6"/></g>
<g transform="translate(620,820) scale(3.4333333333333)"><rect width="6" height="6"/></g>
<g transform="translate(640,820) scale(3.4333333333333)"><rect width="6" height="6"/></g>
<g transform="translate(680,820) scale(3.4333333333333)"><rect width="6" height="6"/></g>
<g transform="translate(700,820) scale(3.4333333333333)"><rect width="6" height="6"/></g>
<g transform="translate(720,820) scale(3.4333333333333)"><rect width="6" height="6"/></g>
<g transform="translate(740,820) scale(3.4333333333333)"><rect width="6" height="6"/></g>
<g transform="translate(760,820) scale(3.4333333333333)"><rect width="6" height="6"/></g>
<g transform="translate(840,820) scale(3.4333333333333)"><rect width="6" height="6"/></g>
<g transform="translate(880,820) scale(3.4333333333333)"><rect width="6" height="6"/></g>
<g transform="translate(900,820) scale(3.4333333333333)"><rect width="6" height="6"/></g>
<g transform="translate(200,840) scale(3.4333333333333)"><rect width="6" height="6"/></g>
<g transform="translate(220,840) scale(3.4333333333333)"><rect width="6" height="6"/></g>
<g transform="translate(280,840) scale(3.4333333333333)"><rect width="6" height="6"/></g>
<g transform="translate(320,840) scale(3.4333333333333)"><rect width="6" height="6"/></g>
<g transform="translate(380,840) scale(3.4333333333333)"><rect width="6" height="6"/></g>
<g transform="translate(400,840) scale(3.4333333333333)"><rect width="6" height="6"/></g>
<g transform="translate(420,840) scale(3.4333333333333)"><rect width="6" height="6"/></g>
<g transform="translate(440,840) scale(3.4333333333333)"><rect width="6" height="6"/></g>
<g transform="translate(460,840) scale(3.4333333333333)"><rect width="6" height="6"/></g>
<g transform="translate(480,840) scale(3.4333333333333)"><rect width="6" height="6"/></g>
<g transform="translate(500,840) scale(3.4333333333333)"><rect width="6" height="6"/></g>
<g transform="translate(520,840) scale(3.4333333333333)"><rect width="6" height="6"/></g>
<g transform="translate(560,840) scale(3.4333333333333)"><rect width="6" height="6"/></g>
<g transform="translate(600,840) scale(3.4333333333333)"><rect width="6" height="6"/></g>
<g transform="translate(660,840) scale(3.4333333333333)"><rect width="6" height="6"/></g>
<g transform="translate(700,840) scale(3.4333333333333)"><rect width="6" height="6"/></g>
<g transform="translate(740,840) scale(3.4333333333333)"><rect width="6" height="6"/></g>
<g transform="translate(760,840) scale(3.4333333333333)"><rect width="6" height="6"/></g>
<g transform="translate(780,840) scale(3.4333333333333)"><rect width="6" height="6"/></g>
<g transform="translate(800,840) scale(3.4333333333333)"><rect width="6" height="6"/></g>
<g transform="translate(820,840) scale(3.4333333333333)"><rect width="6" height="6"/></g>
<g transform="translate(840,840) scale(3.4333333333333)"><rect width="6" height="6"/></g>
<g transform="translate(880,840) scale(3.4333333333333)"><rect width="6" height="6"/></g>
<g transform="translate(920,840) scale(3.4333333333333)"><rect width="6" height="6"/></g>
<g transform="translate(200,860) scale(3.4333333333333)"><rect width="6" height="6"/></g>
<g transform="translate(220,860) scale(3.4333333333333)"><rect width="6" height="6"/></g>
<g transform="translate(300,860) scale(3.4333333333333)"><rect width="6" height="6"/></g>
<g transform="translate(340,860) scale(3.4333333333333)"><rect width="6" height="6"/></g>
<g transform="translate(380,860) scale(3.4333333333333)"><rect width="6" height="6"/></g>
<g transform="translate(400,860) scale(3.4333333333333)"><rect width="6" height="6"/></g>
<g transform="translate(440,860) scale(3.4333333333333)"><rect width="6" height="6"/></g>
<g transform="translate(460,860) scale(3.4333333333333)"><rect width="6" height="6"/></g>
<g transform="translate(540,860) scale(3.4333333333333)"><rect width="6" height="6"/></g>
<g transform="translate(580,860) scale(3.4333333333333)"><rect width="6" height="6"/></g>
<g transform="translate(600,860) scale(3.4333333333333)"><rect width="6" height="6"/></g>
<g transform="translate(640,860) scale(3.4333333333333)"><rect width="6" height="6"/></g>
<g transform="translate(680,860) scale(3.4333333333333)"><rect width="6" height="6"/></g>
<g transform="translate(700,860) scale(3.4333333333333)"><rect width="6" height="6"/></g>
<g transform="translate(840,860) scale(3.4333333333333)"><rect width="6" height="6"/></g>
<g transform="translate(880,860) scale(3.4333333333333)"><rect width="6" height="6"/></g>
<g transform="translate(200,880) scale(3.4333333333333)"><rect width="6" height="6"/></g>
<g transform="translate(240,880) scale(3.4333333333333)"><rect width="6" height="6"/></g>
<g transform="translate(260,880) scale(3.4333333333333)"><rect width="6" height="6"/></g>
<g transform="translate(280,880) scale(3.4333333333333)"><rect width="6" height="6"/></g>
<g transform="translate(300,880) scale(3.4333333333333)"><rect width="6" height="6"/></g>
<g transform="translate(380,880) scale(3.4333333333333)"><rect width="6" height="6"/></g>
<g transform="translate(500,880) scale(3.4333333333333)"><rect width="6" height="6"/></g>
<g transform="translate(520,880) scale(3.4333333333333)"><rect width="6" height="6"/></g>
<g transform="translate(620,880) scale(3.4333333333333)"><rect width="6" height="6"/></g>
<g transform="translate(660,880) scale(3.4333333333333)"><rect width="6" height="6"/></g>
<g transform="translate(840,880) scale(3.4333333333333)"><rect width="6" height="6"/></g>
<g transform="translate(880,880) scale(3.4333333333333)"><rect width="6" height="6"/></g>
<g transform="translate(220,900) scale(3.4333333333333)"><rect width="6" height="6"/></g>
<g transform="translate(240,900) scale(3.4333333333333)"><rect width="6" height="6"/></g>
<g transform="translate(300,900) scale(3.4333333333333)"><rect width="6" height="6"/></g>
<g transform="translate(320,900) scale(3.4333333333333)"><rect width="6" height="6"/></g>
<g transform="translate(380,900) scale(3.4333333333333)"><rect width="6" height="6"/></g>
<g transform="translate(400,900) scale(3.4333333333333)"><rect width="6" height="6"/></g>
<g transform="translate(440,900) scale(3.4333333333333)"><rect width="6" height="6"/></g>
<g transform="translate(460,900) scale(3.4333333333333)"><rect width="6" height="6"/></g>
<g transform="translate(480,900) scale(3.4333333333333)"><rect width="6" height="6"/></g>
<g transform="translate(500,900) scale(3.4333333333333)"><rect width="6" height="6"/></g>
<g transform="translate(520,900) scale(3.4333333333333)"><rect width="6" height="6"/></g>
<g transform="translate(560,900) scale(3.4333333333333)"><rect width="6" height="6"/></g>
<g transform="translate(580,900) scale(3.4333333333333)"><rect width="6" height="6"/></g>
<g transform="translate(620,900) scale(3.4333333333333)"><rect width="6" height="6"/></g>
<g transform="translate(700,900) scale(3.4333333333333)"><rect width="6" height="6"/></g>
<g transform="translate(720,900) scale(3.4333333333333)"><rect width="6" height="6"/></g>
<g transform="translate(760,900) scale(3.4333333333333)"><rect width="6" height="6"/></g>
<g transform="translate(780,900) scale(3.4333333333333)"><rect width="6" height="6"/></g>
<g transform="translate(820,900) scale(3.4333333333333)"><rect width="6" height="6"/></g>
<g transform="translate(880,900) scale(3.4333333333333)"><rect width="6" height="6"/></g>
<g transform="translate(920,900) scale(3.4333333333333)"><rect width="6" height="6"/></g>
<g transform="translate(200,920) scale(3.4333333333333)"><rect width="6" height="6"/></g>
<g transform="translate(240,920) scale(3.4333333333333)"><rect width="6" height="6"/></g>
<g transform="translate(260,920) scale(3.4333333333333)"><rect width="6" height="6"/></g>
<g transform="translate(320,920) scale(3.4333333333333)"><rect width="6" height="6"/></g>
<g transform="translate(340,920) scale(3.4333333333333)"><rect width="6" height="6"/></g>
<g transform="translate(360,920) scale(3.4333333333333)"><rect width="6" height="6"/></g>
<g transform="translate(380,920) scale(3.4333333333333)"><rect width="6" height="6"/></g>
<g transform="translate(460,920) scale(3.4333333333333)"><rect width="6" height="6"/></g>
<g transform="translate(480,920) scale(3.4333333333333)"><rect width="6" height="6"/></g>
<g transform="translate(520,920) scale(3.4333333333333)"><rect width="6" height="6"/></g>
<g transform="translate(600,920) scale(3.4333333333333)"><rect width="6" height="6"/></g>
<g transform="translate(660,920) scale(3.4333333333333)"><rect width="6" height="6"/></g>
<g transform="translate(680,920) scale(3.4333333333333)"><rect width="6" height="6"/></g>
<g transform="translate(700,920) scale(3.4333333333333)"><rect width="6" height="6"/></g>
<g transform="translate(760,920) scale(3.4333333333333)"><rect width="6" height="6"/></g>
<g transform="translate(840,920) scale(3.4333333333333)"><rect width="6" height="6"/></g>
<g transform="translate(860,920) scale(3.4333333333333)"><rect width="6" height="6"/></g>
<g transform="translate(40,40)"><g transform="scale(10)"><path d="M0,0v14h14V0H0z M12,12H2V2h10V12z"/></g></g>
<g transform="translate(800,40)"><g transform="scale(10)"><path d="M0,0v14h14V0H0z M12,12H2V2h10V12z"/></g></g>
<g transform="translate(40,800)"><g transform="scale(10)"><path d="M0,0v14h14V0H0z M12,12H2V2h10V12z"/></g></g>
<g transform="translate(80,80)"><g transform="scale(10)"><rect width="6" height="6"/></g></g>
<g transform="translate(840,80)"><g transform="scale(10)"><rect width="6" height="6"/></g></g>
<g transform="translate(80,840)"><g transform="scale(10)"><rect width="6" height="6"/></g></g>
</g></svg>